<?xml version="1.0" encoding="UTF-8"?><svg id="a" xmlns="http://www.w3.org/2000/svg" viewBox="0 0 400 400"><defs><style>.b{fill:#9e6381;}</style></defs><path class="b" d="M315.55,50.69v.02l-115.55,138.45L84.46,50.71v-.02H52.42V349.31h30.3l69.27-83,37.19,83h21.64l37.19-83,69.27,83h30.3V50.69h-32.03ZM82.72,329.7V111.71l63.55,141.83-63.55,76.15Zm20.57-236.82l88.53,106.09-26.82,32.14L103.29,92.88Zm96.71,216.61l-29.3-65.61,29.3-35.1,29.3,35.1-29.3,65.61Zm35-78.39l-26.82-32.14,88.53-106.09-61.71,138.22Zm82.28,98.6l-63.55-76.15,63.55-141.83v217.99Z"/></svg>