<?xml version="1.0" encoding="UTF-8"?><svg id="a" xmlns="http://www.w3.org/2000/svg" viewBox="0 0 400 400"><defs><style>.b{fill:#9e6381;}.c{fill:gray;}</style></defs><g><polygon class="c" points="78.94 365.71 62.77 329.45 60 329.45 60 369.11 62.6 369.11 62.6 334.88 77.9 369.11 79.98 369.11 95.22 334.88 95.22 369.11 97.82 369.11 97.82 329.45 95.1 329.45 78.94 365.71"/><path class="c" d="M119.29,329.51l-14.89,39.6h2.83l3.87-10.39h19.23l3.87,10.39h2.83l-14.84-39.6h-2.89Zm-7.39,27.02l8.83-23.61,8.78,23.61h-17.61Z"/><polygon class="c" points="157.22 366.05 143.19 328.58 140.36 328.58 155.78 369.11 158.66 369.11 174.14 328.58 171.37 328.58 157.22 366.05"/><polygon class="c" points="180.43 369.11 200.92 369.11 200.92 366.92 183.03 366.92 183.03 349.89 199.19 349.89 199.19 347.69 183.03 347.69 183.03 330.78 200.92 330.78 200.92 328.58 180.43 328.58 180.43 369.11"/><path class="c" d="M230.8,347.89c1.75-2.02,2.63-4.59,2.63-7.71,0-3.5-1.13-6.31-3.38-8.43-2.25-2.12-5.63-3.18-10.13-3.18h-11.14v40.53h2.6v-17.26h8.89l10.39,17.26h3.12l-10.62-17.49c3.35-.46,5.9-1.7,7.65-3.72Zm-10.77,1.76h-8.66v-18.76h8.54c7.2,0,10.8,3.1,10.8,9.29,0,2.85-.89,5.14-2.66,6.87-1.77,1.73-4.45,2.6-8.02,2.6Z"/><polygon class="c" points="243.76 328.58 241.16 328.58 241.16 369.11 258.83 369.11 258.83 366.92 243.76 366.92 243.76 328.58"/><rect class="c" x="264.72" y="328.58" width="2.6" height="40.53"/><polygon class="c" points="303.23 364.78 279.44 328.64 276.84 328.64 276.84 369.11 279.44 369.11 279.44 332.86 303.23 369.11 305.82 369.11 305.82 328.64 303.23 328.64 303.23 364.78"/><polygon class="c" points="320.2 348.91 339.94 328.58 336.59 328.58 317.95 347.87 317.95 328.58 315.35 328.58 315.35 369.11 317.95 369.11 317.95 350 336.59 369.11 340 369.11 320.2 348.91"/></g><path class="b" d="M309.62,30.89v.02l-109.62,131.34L90.39,30.91v-.02h-30.39V314.17h28.74l65.71-78.74,35.28,78.74h20.53l35.28-78.74,65.71,78.74h28.74V30.89h-30.38ZM88.74,295.57V88.78l60.29,134.55-60.29,72.24Zm19.51-224.66l83.98,100.64-25.44,30.49L108.25,70.92Zm91.75,205.49l-27.79-62.25,27.79-33.3,27.79,33.3-27.79,62.25Zm33.2-74.36l-25.44-30.49,83.98-100.64-58.54,131.12Zm78.06,93.53l-60.29-72.24,60.29-134.55v206.79Z"/></svg>