<svg xmlns="http://www.w3.org/2000/svg" viewBox="0 0 1000 800"><defs><style>.cls-1{fill:#a8889c;}.cls-2{fill:#c4abbc;}.cls-3{fill:#9e6381;}.cls-4{fill:#fff;}.cls-5{fill:#b2849f;}</style></defs><g id="Layer_3" data-name="Layer 3"><path class="cls-1" d="M900,800H0s1.14-2.51,3.34-6.52c8-14.74,35.79-36.38,49.16-36.38,10.17,0,143.17-94.27,151.5-100.1s55-24,66-30,58.33-63,58.33-63L347,561s61-97.78,82-106.35S510,501,510,501s22,4,25,5,27,11,48,22c6.45,3.38,15.56,6,25.26,8.1,12.26,2.66,25.46,4.5,35.42,6,7.84,1.21,13.67,2.23,15.46,3.31C665,549,900,800,900,800Z"/><path class="cls-2" d="M390.56,514c8-10.67,31.55-48.22,40.33-47,3.63.51,13.16,12,11.3,14-.89,1-3.35,6.49-9.86,11.67-7,5.56-18.18,10.88-22.66,14.33C401,513.67,381,535,381,535Z"/><path class="cls-2" d="M331,573.5h15.5L315,600.7s1.5-9,4-13.6S331,573.5,331,573.5Z"/></g><g id="Layer_1" data-name="Layer 1"><path class="cls-3" d="M1000,636V800H0s189-26,210-39,49-38,55-40a22.85,22.85,0,0,1,6.61-.7c6.1,0,14.21.91,20.24.91A34.37,34.37,0,0,0,296,721c5-.62,19.77-.74,30.14-.74,6.22,0,10.86,0,10.86,0S410,682,442,661s70-74,79-87,52-37,52-37,43.33,7,55.33,7h2.16c4.3,0,8.69-.12,13.19-1.85,4.67-1.8,9.47-5.32,14.43-12.22A92.15,92.15,0,0,0,667,514c13.27-29.38,72.48-83.81,89.57-100.57.94-.94,1.76-1.75,2.43-2.43a16.81,16.81,0,0,1,12.38-5.43C792.17,405.57,817,441,817,441s.64,0,1.75,0c6.11,0,26.48.71,33.25,10,8,11,48,94,48,94,13,20,33,55,49,59S1000,636,1000,636Z"/><path class="cls-4" d="M950.46,598.18c-3.24-.81-9.13-4.36-18.79-16.66-7.31-9.33-14.51-20.7-20.86-30.74-2-3.1-3.82-6-5.57-8.73-4.84-10-40.4-83.6-48.39-94.58C849.25,437,831,435.11,820,435a158.46,158.46,0,0,0-13.78-15.92c-12.85-12.93-24.58-19.49-34.86-19.49a22.68,22.68,0,0,0-16.67,7.23l-1.43,1.44-.91.91c-2.15,2.1-5,4.85-8.32,8-24.62,23.65-70.46,67.65-82.52,94.36a86.79,86.79,0,0,1-8.29,14.89c-3.75,5.23-7.59,8.54-11.72,10.13-3.49,1.34-7.06,1.45-11,1.45h-2.16c-4,0-11.67-.83-20.07-1.9-15.8-2-34-5-34.3-5l-2.06-.34-1.82,1c-4.53,2.53-44.5,25.08-54,38.82-7.34,10.6-45.55,64.53-77.36,85.4-29,19.06-93.14,53-103.17,58.31-1.87,0-5.31,0-9.4,0-16.31,0-26.7.26-30.88.79a28.71,28.71,0,0,1-3.41.16c-2.82,0-6.3-.22-9.67-.44-3.6-.23-7.32-.47-10.57-.47a27.44,27.44,0,0,0-8.51,1c-3.64,1.21-9.64,5.84-21.78,15.36-10.52,8.24-23.61,18.5-34.48,25.23-4.52,2.8-24.91,9.58-110.66,23.55-40.77,6.64-80.23,12.26-92.84,14C1.14,797.49,0,800,0,800s189-26,210-39,49-38,55-40a22.85,22.85,0,0,1,6.61-.7c6.1,0,14.21.91,20.24.91A34.37,34.37,0,0,0,296,721c5-.62,19.77-.74,30.14-.74,6.22,0,10.86,0,10.86,0S410,682,442,661s70-74,79-87,52-37,52-37,43.33,7,55.33,7h2.16c4.3,0,8.69-.12,13.19-1.85,4.67-1.8,9.47-5.32,14.43-12.22A92.15,92.15,0,0,0,667,514c13.27-29.38,72.48-83.81,89.57-100.57.94-.94,1.76-1.75,2.43-2.43a16.81,16.81,0,0,1,12.38-5.43C792.17,405.57,817,441,817,441s.64,0,1.75,0c6.11,0,26.48.71,33.25,10,8,11,48,94,48,94,13,20,33,55,49,59s51,32,51,32v-7.63C990.1,620.71,964.59,601.72,950.46,598.18Z"/><path class="cls-5" d="M787.67,445.67c0,18.43-48.95,36.2-66.29,62.2-13.58,20.37-40.64,33.73-60.38,37.5,2.91-4,18.36-21.31,21.38-28C695.65,488,744.05,444,761.14,427.22,763.41,430.43,787.67,441.08,787.67,445.67Z"/><path class="cls-5" d="M487,636.91c9.32-13.57,48.68-63.3,48.68-63.3,1.88-1.78,34.77-24.11,40.42-24.1,10,0,25.28,1.88,25.78,5.24s-49.46,43.25-57,46.44S490.46,650.6,487.61,648C485.83,646.31,487,636.91,487,636.91Z"/><path class="cls-5" d="M265,729.67c8.67,0,18.67-.67,18.67,2.66s-41.34,21.34-48,24-5.34-2,3.33-8.66S265,729.67,265,729.67Z"/></g><g id="Layer_4" data-name="Layer 4"><path class="cls-3" d="M816.89,336.1c-.5-.09-.46.14-2.69.48-.34.07-.62.35-1,.28,0-.12,0-.28.13-.36.47-.29,1-.36,1.49-.64.64-.42,1.39-.61,2-1,.31-.2,0-.74-.34-.63a13.5,13.5,0,0,1-2.25.8c-.36.07-1,.74-1.47.66a.31.31,0,0,1,.12-.37,6.62,6.62,0,0,0,1.36-1c.28-.22,1.09-.58,1.19-1s-.41-.39-.65-.27a4.85,4.85,0,0,0-.88.52,5.68,5.68,0,0,1-.77.41,3.76,3.76,0,0,1-2.75,1c-.06-.36.63-1,.56-1.73a1.33,1.33,0,0,0-.29-.87c-.11-.1-.23-.24-.38-.15-.16.25-.06.57-.18.83-.52,1.25-1.43,1.36-1.62,1.88a8.45,8.45,0,0,1-.56,1,2,2,0,0,1-.87.92c-.2.1-.37.28-.6.29a2.67,2.67,0,0,0-.83.21c-4.74,1.68-8,.64-10.37,1.56a19.64,19.64,0,0,1-3.27,1.22,13.19,13.19,0,0,0-2.86.36,14.27,14.27,0,0,1-3.49.55c-2.29-.68-6-.93-7.84.45-.09.06-.19.15-.3.08a3.85,3.85,0,0,0-.71-.34c-1.19-.3-1-.78-1-1.06-.41-1.57-.65-.64,0-2.39,1.38.48,1.07-1.36.3-1.71-.2-.07-.23-.3-.25-.49a7.79,7.79,0,0,0-1.12-3.26,5.46,5.46,0,0,0-2.81-1.64,4.27,4.27,0,0,0-2.46.42,8.2,8.2,0,0,0-1.61,1.77c-.54.8-.55,1.86-.34,4.05a1.62,1.62,0,0,0-.6,1.59.54.54,0,0,0,.65.38,1.15,1.15,0,0,0,.46-.33,3.93,3.93,0,0,1,.44.8,7.46,7.46,0,0,0-.39,1.73c-1.42.8-.07,0-2.12.94-3.44-1.49-4.53-.95-8-.32-.89.16-.38.51-4.36-.29-2.39-.16-1.14.15-2.79-.34-2.19-.91-2.25-1.49-7.24-1.63a8,8,0,0,1-3.11-.63,4.15,4.15,0,0,0-.7-.07,15.42,15.42,0,0,1-1.82-.63,2,2,0,0,1-1.78-1.49c-.67-1.6-.06-.91-.92-1.61a3.75,3.75,0,0,1-1.33-1.76c-.24-.63-.63-.12-.67.15-.17,1.08.61,1.68.65,2.23a4.86,4.86,0,0,1-.82-.19,4,4,0,0,1-1.75-1c-.37-.29-.79-.49-1.16-.76-1.44-1.07-1.44-.23-1.33-.08.45.62.73.38,1.77,1.58-.35.28,0,.19-1-.16-.56-.19-1.42-.85-1.86-.8a.38.38,0,0,0-.39.44c.05.14.19.2.31.27.29.16.55.36.85.5a5,5,0,0,1,.81.54c.63.39,1.92.85,1.39,1.07A1.8,1.8,0,0,1,730,337c-.33-.14-.69-.15-1-.26s-.95-.35-1.45-.44a.39.39,0,0,0-.4.52c.14.29,1.32.55,1.93.84,1,.5,1.21.29,1.68.58.09.06.06.19.07.28a11,11,0,0,1-1.78,0,1.25,1.25,0,0,0-.85-.05c-.89.86,2.2.86,2.81,1.07,2.16.82,2.29,1.12,3.47,1.13,2.3,0,8.44,3.84,12,4.11a15.34,15.34,0,0,1,2.68.61,7.71,7.71,0,0,1,1.25.26,13.77,13.77,0,0,0,2.35.88c2.81,1,3.14,1.73,7,1.38a3,3,0,0,1,.79-.07c.5.08.44.32.74,1.18,1.27,3.62,1.53,3.89,1.72,5.3.38,3.71,1.47,5.93,1.35,7.44a22.1,22.1,0,0,0-.3,3.15c.16,1.67-.76,3.09-1,5.75,0,.26-.14.5-.16.77-.08,0-.17.09-.25.15a1.69,1.69,0,0,0,.15.43c-.07.11-.17.22-.13.37s-.15.37-.13.58-.15.28-.23.41-.09,1.27-.11,1.35-.26.2-.31.35.17.4.13.63a4.45,4.45,0,0,0-.13,1.09c0,.29-.28.35-.48.46a1,1,0,0,0,.21.57c-.3.22-.55.23-.59.66a1.66,1.66,0,0,0,.34.66,2.69,2.69,0,0,1,.22,1,40.89,40.89,0,0,0-.34,7.1c.59,7.85-.79,7.33-1.27,9.89-.08.76-.18,1.52-.28,2.28,0,.55,0,1.11,0,1.67a7.46,7.46,0,0,0,0-1.06c-.06,2.09.08,3.43.09,3.89.14,1.54,0,3.66,0,4.28a9,9,0,0,1-.69,4c-.13.23,0,.5-.09.74a2.22,2.22,0,0,1-.37.38,4.52,4.52,0,0,0-.52.77c-1,1.41-2.48,1.58-2.86,2.21a.39.39,0,0,0,0,.5c.53.46.74.22,1,.25a7.87,7.87,0,0,0,2.7.05c1.69-.27.87-.42,1.92-.85.24-.1.51-.12.76-.2s.39-.29.55-.47c.32-.53-.06-1.55.15-2.66,0-.18.17-.33.14-.52a4.51,4.51,0,0,1,.37-3.15c1.13-3.92,1.17-6.51,2-7.91,1.09-1.84.8-4.09,1.29-6.1a10.27,10.27,0,0,1,1-1.92c.95-2.77.84-5,2.15-7.71a23.58,23.58,0,0,0,2.1-4.78c1.42-.63,1.19-.58,1.79-.56.09.18.3.29.33.51a12.49,12.49,0,0,0,.9,2c2.36,4.3,1.95,3.24,3,6.21a18.1,18.1,0,0,0,2,5.19,3.5,3.5,0,0,1,.43.78,16.5,16.5,0,0,1,.74,3.81c.47,3.18,1.1,1.82,2,5.83l1.23,4.12c.66,1.9,0,2.87.34,3.82.12.52.39,1,.55,1.49,0,.16,0,.33,0,.49.22,1.28.27.77.59,1.25,0,.18-.06.4.1.54s.51,0,.72.18.24.22.41.21a10.18,10.18,0,0,0,1.46-.05,1.3,1.3,0,0,0,.85,0c.16-.09.35,0,.53-.07s.63-.2.93-.33c0-.7.11-.14-1.46-1.56-2.67-2.48-.4-1.35-1.83-3.86-.35-.53-.12-3.67-.33-5.35-.32-2.94.74-5.92-1-10a7.33,7.33,0,0,1-.83-2.51s-.25-1.62-.33-1.95c-.66-2.52.15-2-.43-6.83,0-.06-.2-1.94-.58-4.29a11.12,11.12,0,0,1-.25-1.38,5,5,0,0,0,.14-1.47,1.77,1.77,0,0,0-.65-.87,1.74,1.74,0,0,0,.2-.49c-.06-.23-.37-.32-.39-.57s.21-.45,0-.62-.19-.7-.32-1a7.46,7.46,0,0,0-.47-1.27.73.73,0,0,0,.09-.48c-.07-.06-.16-.1-.24-.16s-.08-.24-.19-.31-.16-.1-.21-.19.07-.24.08-.37-.2-.48-.15-.74c.15-1.32-1-3.1-.91-4.9,0-2.72-1.3-1.53.64-11.12a18.08,18.08,0,0,1,1.55-4.5c.62-1.65.42-2,1.13-2.13,1.1-.19,2.77.35,4.87-.54a39.33,39.33,0,0,1,5.26-2.17,2.47,2.47,0,0,0,.74-.33c.38-.24,5.5-1.27,6.14-1.46a26.29,26.29,0,0,0,5.14-1.9,10.15,10.15,0,0,1,2.38-.83c.89-.33,1.65.07,2.69-.24a6.61,6.61,0,0,1,1.88-.43c.85-.23,2.76.44,3.26.1.18-.23-.08-.49-.28-.61s-.62,0-.92-.07c-1-.29-1.18-.24-1.33-.44a.56.56,0,0,1,.13-.49c.17-.06,3-.83,3.6-1.07C817.14,336.65,817.06,336.17,816.89,336.1Z"/><g id="layer1"><path class="cls-1" d="M436.86,431.89h0a.67.67,0,0,0,.49.17v.83c0,.21,0,.4,0,.58v.15c0,.18.06.43.1.77,0,0,0,.18.06.47s.06.72.07.84a.25.25,0,0,1,0,.11l0,0-.06,0-.2,0-.07,0-.07.06,0,0a.66.66,0,0,1-.2,0h-.12l-.06,0-.09,0h-.47c.06-.3.1-.53.12-.71l.05-.35c0-.34.07-.59.1-.75s0-.25.05-.37,0-.17,0-.19l0-.15c.06-.45.09-.69.1-.72l.06-.5,0-.2c0-.08.05-.12.1-.12m-.86-.3h0a.05.05,0,0,1,0,0,.36.36,0,0,1,0,.09.22.22,0,0,1-.05.06,1.3,1.3,0,0,0-.17.2.15.15,0,0,0-.05.11.19.19,0,0,0,0,.13.23.23,0,0,0,.07.06l.2.11v.1l-.08.7c0,.13-.07.29-.1.5-.06.39-.1.71-.13,1,0,.09,0,.16-.05.22l-.07.28c0,.12-.05.38-.12.79l-.33.15a.13.13,0,0,1-.07,0l-.56-.46c-.07-.07-.12-.12-.12-.15a2,2,0,0,1-.06-.33.75.75,0,0,0,0-.15,1,1,0,0,0-.1-.26.64.64,0,0,1,0-.07v-.15c0-.05,0-.16,0-.32a1,1,0,0,0,0-.16,2.85,2.85,0,0,0-.08-.36c0-.07-.05-.13-.07-.19a.77.77,0,0,0-.06-.15v0s0-.27,0-.66l.74-.39a.5.5,0,0,0,.15-.1l.2-.06a2.85,2.85,0,0,0,.57-.3l.12,0,.16-.12.05,0m-9.67-39.26h0a.25.25,0,0,0-.19,0,.5.5,0,0,0-.18.34l-.24.08c-.29-.23-.5-.33-.64-.31a.36.36,0,0,0-.15.41l.47.7c-.11.08-.11.25,0,.51l.52.6a4.71,4.71,0,0,0,.19,1.07,4.27,4.27,0,0,1,.55.9l1.6,3.84.65,1.24a20.58,20.58,0,0,1,1.22,1.87,9.51,9.51,0,0,1,.22,1.27l-.75.91.95,1.32a6.44,6.44,0,0,1,.08,1.07l.15.23a2.88,2.88,0,0,0,.08.6c0,.12.18.21.4.26a3.89,3.89,0,0,0,.75,2l-.34,1.18a10.19,10.19,0,0,1-.12,2c-1.38,3.09-2.2,5.18-2.57,6.23a3,3,0,0,1-.62.85l-.88,1.62c-.19.14-.29.24-.31.31s0,.26.18.47l1.51,1.54a.75.75,0,0,1,0,.32l-.36,1.15-.1.87a15.33,15.33,0,0,0,.11,2.05,10.32,10.32,0,0,0-2.57,2.21,1.73,1.73,0,0,0-.43,1.39,3.7,3.7,0,0,0,.69,1.47l4.32,3.07c.37,1.51.58,2.44.62,2.8l0,.45a11,11,0,0,0-.12,1.18,31.15,31.15,0,0,0,1.83,5,23.4,23.4,0,0,0,.84,4.52c0,.12,0,.18,0,.2a3,3,0,0,0-.91.61,1.57,1.57,0,0,1-.07.74,3.88,3.88,0,0,0-1.2.71,1.11,1.11,0,0,0-.08.88l.35.22,2.21,0h1.35a10.69,10.69,0,0,0,2-.2.62.62,0,0,0-.05-.67l.12-.24a7.19,7.19,0,0,0,0-1l.07-.24-.3-2.7a6.31,6.31,0,0,0-.54-1.38L436,446.6a18.77,18.77,0,0,0-.87-4.66,4,4,0,0,0,0-1.2l1,.05s0,.12,0,.29c.62.75.95,1.09,1,1a2.84,2.84,0,0,0,.44.82l.33.18c.55.08,1-.21,1.29-.87a2.62,2.62,0,0,0,.24-1.4A15.11,15.11,0,0,0,439,439l-.2-1.09-.74-5.63a2.9,2.9,0,0,1,1.28.39l.05,1.54q0,.14.12.12l0-1.53c.73.3,1.33.38,1.68.09a13.12,13.12,0,0,0,3.54-3.88l-.06-.56a5.68,5.68,0,0,0,.19-1.55,1.59,1.59,0,0,0-.17-.62,4,4,0,0,0,0-1.38l.23-.76a2.39,2.39,0,0,0-.07-1.06,4.62,4.62,0,0,0,.14-1.46l-.56-1.51a17.17,17.17,0,0,0-1.84-2.1c.14,0,.55-.17,1.05-.77a12.07,12.07,0,0,0,2.08-3.15c.28.11.61,0,1-.35a.74.74,0,0,0-.08-.61l.25-.48.85-.56a1.48,1.48,0,0,0-.06-.81l-.1-.33-.4-.63a.22.22,0,0,1,0-.11,12.62,12.62,0,0,1,1.83-2.86l2.22-4.12a7.54,7.54,0,0,0,1.34-1.24l.38,0a1.32,1.32,0,0,1,1-.5c.17-.1.24-.2.23-.29s-.21-.26-.55-.35a.41.41,0,0,0,0-.27l-.32-.59-1.14-.41a.45.45,0,0,0-.35.13L449.43,403a6.47,6.47,0,0,0-.63,1.14l-1.62,2.14-1.53,2.46a2.67,2.67,0,0,1-.59.51c-.08.13-.17.32-.29.56,0-.06-.24.2-.69.79a2.48,2.48,0,0,0-.87.46,2.21,2.21,0,0,0-.55,1.16l-.55.43c.16-3.63-.06-6-.77-6.95a3.51,3.51,0,0,0-1.41-1.12,4.68,4.68,0,0,0-1.87,0,5,5,0,0,0-1.92,1.78l-.54.89a5.21,5.21,0,0,0-.23,1.33l-.58-.28-.06-.09a.66.66,0,0,0,0-.32.89.89,0,0,0-.17-.25,2.82,2.82,0,0,0-.25-.73,3.14,3.14,0,0,0-.63-.58,1,1,0,0,0-.19-.45,2.09,2.09,0,0,0-.05-.5,10.31,10.31,0,0,1-.58-1.38,1.31,1.31,0,0,1-.47-.21l-.53-1.08a6.39,6.39,0,0,0-.53-1.32c-.33-.54-1-1.51-2.07-2.89l-1.43-2.63a3.56,3.56,0,0,1-.2-.65c0-.06,0-.66,0-1.8a.74.74,0,0,0-.06-.27A5.83,5.83,0,0,0,426.33,392.33Z"/></g></g></svg>