<?xml version="1.0" encoding="UTF-8"?><svg id="a" xmlns="http://www.w3.org/2000/svg" viewBox="0 0 400 400"><defs><style>.b{fill:#9e6381;}.c{fill:gray;}</style></defs><g><polygon class="c" points="54.35 356.17 34.9 312.55 31.57 312.55 31.57 360.27 34.69 360.27 34.69 319.08 53.1 360.27 55.6 360.27 73.94 319.08 73.94 360.27 77.06 360.27 77.06 312.55 73.8 312.55 54.35 356.17"/><path class="c" d="M102.9,312.62l-17.92,47.65h3.4l4.65-12.5h23.13l4.65,12.5h3.4l-17.85-47.65h-3.47Zm-8.89,32.51l10.63-28.41,10.56,28.41h-21.18Z"/><polygon class="c" points="148.53 356.59 131.66 311.51 128.25 311.51 146.8 360.27 150.27 360.27 168.88 311.51 165.55 311.51 148.53 356.59"/><polygon class="c" points="176.45 360.27 201.11 360.27 201.11 357.63 179.58 357.63 179.58 337.14 199.03 337.14 199.03 334.5 179.58 334.5 179.58 314.15 201.11 314.15 201.11 311.51 176.45 311.51 176.45 360.27"/><path class="c" d="M237.06,334.74c2.11-2.43,3.16-5.52,3.16-9.27,0-4.21-1.35-7.59-4.06-10.14-2.71-2.55-6.77-3.82-12.19-3.82h-13.41v48.76h3.13v-20.77h10.7l12.5,20.77h3.75l-12.78-21.05c4.03-.56,7.1-2.05,9.2-4.48Zm-12.95,2.12h-10.42v-22.57h10.28c8.66,0,12.99,3.73,12.99,11.18,0,3.43-1.07,6.18-3.2,8.27-2.13,2.08-5.35,3.12-9.65,3.12Z"/><polygon class="c" points="252.65 311.51 249.52 311.51 249.52 360.27 270.78 360.27 270.78 357.63 252.65 357.63 252.65 311.51"/><rect class="c" x="277.86" y="311.51" width="3.13" height="48.76"/><polygon class="c" points="324.19 355.06 295.57 311.58 292.45 311.58 292.45 360.27 295.57 360.27 295.57 316.65 324.19 360.27 327.31 360.27 327.31 311.58 324.19 311.58 324.19 355.06"/><polygon class="c" points="344.61 335.96 368.36 311.51 364.33 311.51 341.9 334.71 341.9 311.51 338.77 311.51 338.77 360.27 341.9 360.27 341.9 337.28 364.33 360.27 368.43 360.27 344.61 335.96"/></g><path class="b" d="M291.76,39.73v.02l-91.76,109.95L108.24,39.75v-.02h-25.44v237.15h24.06l55.01-65.92,29.54,65.92h17.18l29.54-65.92,55.01,65.92h24.06V39.73h-25.43ZM106.86,261.31V88.19l50.47,112.64-50.47,60.48Zm16.34-188.07l70.31,84.25-21.3,25.52-49.01-109.77Zm76.8,172.02l-23.27-52.11,23.27-27.88,23.27,27.88-23.27,52.11Zm27.79-62.25l-21.3-25.52,70.31-84.25-49.01,109.77Zm65.35,78.3l-50.47-60.48,50.47-112.64v173.11Z"/></svg>