<?xml version="1.0" encoding="UTF-8"?><svg id="a" xmlns="http://www.w3.org/2000/svg" viewBox="0 0 48 48"><defs><style>.b{fill:#fff;}.c{fill:#9e6381;}</style></defs><rect class="c" width="48" height="48"/><path class="b" d="M37.31,6.8h0l-13.31,15.95L10.69,6.8h-3.69V41.2h3.49l7.98-9.56,4.28,9.56h2.49l4.28-9.56,7.98,9.56h3.49V6.8h-3.69ZM10.49,38.94V13.83l7.32,16.34-7.32,8.77Zm2.37-27.28l10.2,12.22-3.09,3.7-7.11-15.92Zm11.14,24.95l-3.37-7.56,3.37-4.04,3.37,4.04-3.37,7.56Zm4.03-9.03l-3.09-3.7,10.2-12.22-7.11,15.92Zm9.48,11.36l-7.32-8.77,7.32-16.34v25.11Z"/></svg>